<mxfile host="app.diagrams.net" modified="2024-05-05T12:33:22.312Z" agent="Mozilla/5.0 (Macintosh; Intel Mac OS X 10_15_7) AppleWebKit/537.36 (KHTML, like Gecko) Chrome/124.0.0.0 Safari/537.36" etag="7J98NIVp_y0-XFCAWkYo" version="24.3.1" type="github">
  <diagram id="WLRPb3Po5uMKOTe53thk" name="Page-1">
    <mxGraphModel dx="2034" dy="806" grid="1" gridSize="13" guides="1" tooltips="1" connect="1" arrows="1" fold="1" page="1" pageScale="1" pageWidth="827" pageHeight="1169" math="1" shadow="0">
      <root>
        <mxCell id="0" />
        <mxCell id="1" parent="0" />
        <mxCell id="Sk3VLhD0Ch2nDToAkQZ0-62" value="" style="rounded=0;whiteSpace=wrap;html=1;fontFamily=Times New Roman;fontSize=14;dashed=1;fillColor=#e1d5e7;strokeColor=#9673a6;" vertex="1" parent="1">
          <mxGeometry x="221" y="182" width="494" height="520" as="geometry" />
        </mxCell>
        <mxCell id="Sk3VLhD0Ch2nDToAkQZ0-60" value="" style="rounded=0;whiteSpace=wrap;html=1;fontFamily=Times New Roman;fontSize=14;dashed=1;fillColor=#f8cecc;strokeColor=#b85450;" vertex="1" parent="1">
          <mxGeometry x="-199" y="182" width="420" height="520" as="geometry" />
        </mxCell>
        <mxCell id="F1N8uxK0OkOdDNArj4mm-15" style="edgeStyle=orthogonalEdgeStyle;rounded=0;orthogonalLoop=1;jettySize=auto;html=1;exitX=0.5;exitY=0;exitDx=0;exitDy=0;fontStyle=1;fontFamily=Times New Roman;fontSize=14;entryX=0;entryY=0.25;entryDx=0;entryDy=0;" parent="1" source="F1N8uxK0OkOdDNArj4mm-8" target="F1N8uxK0OkOdDNArj4mm-34" edge="1">
          <mxGeometry relative="1" as="geometry">
            <mxPoint x="317.74" y="312" as="targetPoint" />
          </mxGeometry>
        </mxCell>
        <mxCell id="F1N8uxK0OkOdDNArj4mm-44" style="edgeStyle=orthogonalEdgeStyle;rounded=0;orthogonalLoop=1;jettySize=auto;html=1;exitX=1;exitY=0.5;exitDx=0;exitDy=0;fontFamily=Times New Roman;fontSize=14;" parent="1" source="F1N8uxK0OkOdDNArj4mm-8" edge="1">
          <mxGeometry relative="1" as="geometry">
            <mxPoint x="480.99" y="370.5" as="targetPoint" />
          </mxGeometry>
        </mxCell>
        <mxCell id="F1N8uxK0OkOdDNArj4mm-48" value="Conv_1x1" style="edgeLabel;html=1;align=center;verticalAlign=middle;resizable=0;points=[];fontSize=14;fontFamily=Times New Roman;" parent="F1N8uxK0OkOdDNArj4mm-44" vertex="1" connectable="0">
          <mxGeometry x="-0.1303" y="1" relative="1" as="geometry">
            <mxPoint as="offset" />
          </mxGeometry>
        </mxCell>
        <mxCell id="F1N8uxK0OkOdDNArj4mm-8" value="Conv&lt;div&gt;Stride = 2&lt;/div&gt;" style="rounded=0;whiteSpace=wrap;html=1;fillColor=#ffe6cc;strokeColor=#d79b00;fontStyle=1;fontFamily=Times New Roman;fontSize=14;" parent="1" vertex="1">
          <mxGeometry x="275.49" y="338" width="84.5" height="65" as="geometry" />
        </mxCell>
        <mxCell id="F1N8uxK0OkOdDNArj4mm-14" style="edgeStyle=orthogonalEdgeStyle;rounded=0;orthogonalLoop=1;jettySize=auto;html=1;exitX=0.5;exitY=0;exitDx=0;exitDy=0;entryX=0.5;entryY=1;entryDx=0;entryDy=0;fontStyle=1;fontFamily=Times New Roman;fontSize=14;" parent="1" source="F1N8uxK0OkOdDNArj4mm-9" target="F1N8uxK0OkOdDNArj4mm-8" edge="1">
          <mxGeometry relative="1" as="geometry">
            <Array as="points">
              <mxPoint x="317.99" y="429" />
              <mxPoint x="317.99" y="429" />
            </Array>
          </mxGeometry>
        </mxCell>
        <mxCell id="F1N8uxK0OkOdDNArj4mm-28" value="0.5x" style="edgeLabel;html=1;align=center;verticalAlign=middle;resizable=0;points=[];fontSize=14;fontFamily=Times New Roman;" parent="F1N8uxK0OkOdDNArj4mm-14" vertex="1" connectable="0">
          <mxGeometry x="0.1182" relative="1" as="geometry">
            <mxPoint as="offset" />
          </mxGeometry>
        </mxCell>
        <mxCell id="F1N8uxK0OkOdDNArj4mm-45" style="edgeStyle=orthogonalEdgeStyle;rounded=0;orthogonalLoop=1;jettySize=auto;html=1;exitX=1;exitY=0.5;exitDx=0;exitDy=0;fontFamily=Times New Roman;fontSize=14;" parent="1" source="F1N8uxK0OkOdDNArj4mm-9" edge="1">
          <mxGeometry relative="1" as="geometry">
            <mxPoint x="493.99" y="481" as="targetPoint" />
          </mxGeometry>
        </mxCell>
        <mxCell id="F1N8uxK0OkOdDNArj4mm-49" value="Conv_1x1" style="edgeLabel;html=1;align=center;verticalAlign=middle;resizable=0;points=[];fontSize=14;fontFamily=Times New Roman;" parent="F1N8uxK0OkOdDNArj4mm-45" vertex="1" connectable="0">
          <mxGeometry x="-0.2561" y="-1" relative="1" as="geometry">
            <mxPoint as="offset" />
          </mxGeometry>
        </mxCell>
        <mxCell id="F1N8uxK0OkOdDNArj4mm-9" value="Conv&lt;div&gt;Stride = 2&lt;/div&gt;" style="rounded=0;whiteSpace=wrap;html=1;fillColor=#ffe6cc;strokeColor=#d79b00;fontStyle=1;fontFamily=Times New Roman;fontSize=14;" parent="1" vertex="1">
          <mxGeometry x="258.5" y="432" width="110.5" height="65" as="geometry" />
        </mxCell>
        <mxCell id="F1N8uxK0OkOdDNArj4mm-23" style="edgeStyle=orthogonalEdgeStyle;rounded=0;orthogonalLoop=1;jettySize=auto;html=1;exitX=0.5;exitY=0;exitDx=0;exitDy=0;entryX=0.5;entryY=1;entryDx=0;entryDy=0;fontFamily=Times New Roman;fontSize=14;" parent="1" source="F1N8uxK0OkOdDNArj4mm-10" target="F1N8uxK0OkOdDNArj4mm-9" edge="1">
          <mxGeometry relative="1" as="geometry" />
        </mxCell>
        <mxCell id="F1N8uxK0OkOdDNArj4mm-10" value="Conv&lt;div&gt;Stride = 1&lt;/div&gt;" style="rounded=0;whiteSpace=wrap;html=1;fillColor=#ffe6cc;strokeColor=#d79b00;fontStyle=1;fontFamily=Times New Roman;fontSize=14;" parent="1" vertex="1">
          <mxGeometry x="246.99" y="520" width="130.01" height="78" as="geometry" />
        </mxCell>
        <mxCell id="F1N8uxK0OkOdDNArj4mm-12" style="edgeStyle=orthogonalEdgeStyle;rounded=0;orthogonalLoop=1;jettySize=auto;html=1;exitX=0.5;exitY=0;exitDx=0;exitDy=0;exitPerimeter=0;entryX=0.5;entryY=1;entryDx=0;entryDy=0;fontStyle=1;fontFamily=Times New Roman;fontSize=14;" parent="1" source="F1N8uxK0OkOdDNArj4mm-11" target="F1N8uxK0OkOdDNArj4mm-10" edge="1">
          <mxGeometry relative="1" as="geometry" />
        </mxCell>
        <mxCell id="Sk3VLhD0Ch2nDToAkQZ0-54" style="edgeStyle=orthogonalEdgeStyle;rounded=0;orthogonalLoop=1;jettySize=auto;html=1;" edge="1" parent="1" source="F1N8uxK0OkOdDNArj4mm-11" target="Sk3VLhD0Ch2nDToAkQZ0-53">
          <mxGeometry relative="1" as="geometry" />
        </mxCell>
        <mxCell id="F1N8uxK0OkOdDNArj4mm-11" value="&lt;font style=&quot;font-size: 20px;&quot;&gt;$$image_{ori}$$&lt;/font&gt;" style="strokeWidth=2;html=1;shape=mxgraph.flowchart.start_1;whiteSpace=wrap;fillColor=#dae8fc;strokeColor=#6c8ebf;fontStyle=1;fontFamily=Times New Roman;fontSize=14;" parent="1" vertex="1">
          <mxGeometry x="263.75" y="637" width="100" height="60" as="geometry" />
        </mxCell>
        <mxCell id="F1N8uxK0OkOdDNArj4mm-39" style="edgeStyle=orthogonalEdgeStyle;rounded=0;orthogonalLoop=1;jettySize=auto;html=1;exitX=0.5;exitY=1;exitDx=0;exitDy=0;entryX=0.5;entryY=0;entryDx=0;entryDy=0;fontFamily=Times New Roman;fontSize=14;" parent="1" source="F1N8uxK0OkOdDNArj4mm-34" target="F1N8uxK0OkOdDNArj4mm-35" edge="1">
          <mxGeometry relative="1" as="geometry" />
        </mxCell>
        <mxCell id="F1N8uxK0OkOdDNArj4mm-51" value="+up2" style="edgeLabel;html=1;align=center;verticalAlign=middle;resizable=0;points=[];fontSize=14;fontFamily=Times New Roman;" parent="F1N8uxK0OkOdDNArj4mm-39" vertex="1" connectable="0">
          <mxGeometry x="-0.1018" relative="1" as="geometry">
            <mxPoint y="-9" as="offset" />
          </mxGeometry>
        </mxCell>
        <mxCell id="F1N8uxK0OkOdDNArj4mm-62" style="edgeStyle=orthogonalEdgeStyle;rounded=0;orthogonalLoop=1;jettySize=auto;html=1;exitX=1;exitY=0.5;exitDx=0;exitDy=0;fontFamily=Times New Roman;fontSize=14;entryX=0;entryY=0.5;entryDx=0;entryDy=0;" parent="1" source="F1N8uxK0OkOdDNArj4mm-34" edge="1" target="Sk3VLhD0Ch2nDToAkQZ0-41">
          <mxGeometry relative="1" as="geometry">
            <mxPoint x="636.99" y="324.3809523809524" as="targetPoint" />
          </mxGeometry>
        </mxCell>
        <mxCell id="F1N8uxK0OkOdDNArj4mm-34" value="Conv" style="rounded=0;whiteSpace=wrap;html=1;fontFamily=Times New Roman;fontSize=14;fillColor=#d5e8d4;strokeColor=#82b366;" parent="1" vertex="1">
          <mxGeometry x="456.49" y="299" width="91" height="51" as="geometry" />
        </mxCell>
        <mxCell id="F1N8uxK0OkOdDNArj4mm-40" style="edgeStyle=orthogonalEdgeStyle;rounded=0;orthogonalLoop=1;jettySize=auto;html=1;exitX=0.5;exitY=1;exitDx=0;exitDy=0;entryX=0.5;entryY=0;entryDx=0;entryDy=0;fontFamily=Times New Roman;fontSize=14;" parent="1" source="F1N8uxK0OkOdDNArj4mm-35" target="F1N8uxK0OkOdDNArj4mm-36" edge="1">
          <mxGeometry relative="1" as="geometry" />
        </mxCell>
        <mxCell id="F1N8uxK0OkOdDNArj4mm-52" value="+up2" style="edgeLabel;html=1;align=center;verticalAlign=middle;resizable=0;points=[];fontSize=14;fontFamily=Times New Roman;" parent="F1N8uxK0OkOdDNArj4mm-40" vertex="1" connectable="0">
          <mxGeometry x="-0.3517" relative="1" as="geometry">
            <mxPoint y="-11" as="offset" />
          </mxGeometry>
        </mxCell>
        <mxCell id="F1N8uxK0OkOdDNArj4mm-63" style="edgeStyle=orthogonalEdgeStyle;rounded=0;orthogonalLoop=1;jettySize=auto;html=1;exitX=1;exitY=0.5;exitDx=0;exitDy=0;entryX=0.5;entryY=1;entryDx=0;entryDy=0;fontFamily=Times New Roman;fontSize=14;" parent="1" source="F1N8uxK0OkOdDNArj4mm-35" target="Sk3VLhD0Ch2nDToAkQZ0-47" edge="1">
          <mxGeometry relative="1" as="geometry">
            <mxPoint x="645.49" y="422.5" as="targetPoint" />
          </mxGeometry>
        </mxCell>
        <mxCell id="F1N8uxK0OkOdDNArj4mm-35" value="Conv" style="rounded=0;whiteSpace=wrap;html=1;fontFamily=Times New Roman;fontSize=14;fillColor=#d5e8d4;strokeColor=#82b366;" parent="1" vertex="1">
          <mxGeometry x="454.99" y="390" width="92.5" height="65" as="geometry" />
        </mxCell>
        <mxCell id="F1N8uxK0OkOdDNArj4mm-65" style="edgeStyle=orthogonalEdgeStyle;rounded=0;orthogonalLoop=1;jettySize=auto;html=1;exitX=1;exitY=0.5;exitDx=0;exitDy=0;fontFamily=Times New Roman;fontSize=14;entryX=0.5;entryY=1;entryDx=0;entryDy=0;" parent="1" source="F1N8uxK0OkOdDNArj4mm-36" edge="1" target="Sk3VLhD0Ch2nDToAkQZ0-50">
          <mxGeometry relative="1" as="geometry">
            <mxPoint x="636.99" y="558.9885057471265" as="targetPoint" />
          </mxGeometry>
        </mxCell>
        <mxCell id="F1N8uxK0OkOdDNArj4mm-36" value="Conv" style="rounded=0;whiteSpace=wrap;html=1;fontFamily=Times New Roman;fontSize=14;fillColor=#d5e8d4;strokeColor=#82b366;" parent="1" vertex="1">
          <mxGeometry x="449.99" y="520" width="104" height="78" as="geometry" />
        </mxCell>
        <mxCell id="F1N8uxK0OkOdDNArj4mm-80" value="&lt;b&gt;Bottom-up&lt;/b&gt;" style="text;html=1;strokeColor=none;fillColor=none;align=center;verticalAlign=middle;whiteSpace=wrap;rounded=0;dashed=1;fontFamily=Times New Roman;fontSize=14;" parent="1" vertex="1">
          <mxGeometry x="282.73" y="234" width="70.01" height="52" as="geometry" />
        </mxCell>
        <mxCell id="F1N8uxK0OkOdDNArj4mm-82" value="&lt;b style=&quot;&quot;&gt;Top-down&amp;nbsp;&lt;/b&gt;" style="text;html=1;strokeColor=none;fillColor=none;align=center;verticalAlign=middle;whiteSpace=wrap;rounded=0;dashed=1;fontFamily=Times New Roman;fontSize=14;" parent="1" vertex="1">
          <mxGeometry x="466.99" y="234" width="70.01" height="52" as="geometry" />
        </mxCell>
        <mxCell id="Sk3VLhD0Ch2nDToAkQZ0-5" style="edgeStyle=orthogonalEdgeStyle;rounded=0;orthogonalLoop=1;jettySize=auto;html=1;exitX=0.5;exitY=0;exitDx=0;exitDy=0;fontStyle=1;fontFamily=Times New Roman;fontSize=14;entryX=0;entryY=0.25;entryDx=0;entryDy=0;" edge="1" parent="1" source="Sk3VLhD0Ch2nDToAkQZ0-8" target="Sk3VLhD0Ch2nDToAkQZ0-23">
          <mxGeometry relative="1" as="geometry">
            <mxPoint x="-98.25999999999999" y="312" as="targetPoint" />
          </mxGeometry>
        </mxCell>
        <mxCell id="Sk3VLhD0Ch2nDToAkQZ0-6" style="edgeStyle=orthogonalEdgeStyle;rounded=0;orthogonalLoop=1;jettySize=auto;html=1;exitX=1;exitY=0.5;exitDx=0;exitDy=0;fontFamily=Times New Roman;fontSize=14;" edge="1" parent="1" source="Sk3VLhD0Ch2nDToAkQZ0-8">
          <mxGeometry relative="1" as="geometry">
            <mxPoint x="64.99000000000001" y="370.5" as="targetPoint" />
          </mxGeometry>
        </mxCell>
        <mxCell id="Sk3VLhD0Ch2nDToAkQZ0-7" value="Conv_1x1" style="edgeLabel;html=1;align=center;verticalAlign=middle;resizable=0;points=[];fontSize=14;fontFamily=Times New Roman;" vertex="1" connectable="0" parent="Sk3VLhD0Ch2nDToAkQZ0-6">
          <mxGeometry x="-0.1303" y="1" relative="1" as="geometry">
            <mxPoint as="offset" />
          </mxGeometry>
        </mxCell>
        <mxCell id="Sk3VLhD0Ch2nDToAkQZ0-8" value="Conv&lt;div&gt;Stride = 2&lt;/div&gt;" style="rounded=0;whiteSpace=wrap;html=1;fillColor=#ffe6cc;strokeColor=#d79b00;fontStyle=1;fontFamily=Times New Roman;fontSize=14;" vertex="1" parent="1">
          <mxGeometry x="-140.51" y="338" width="84.5" height="65" as="geometry" />
        </mxCell>
        <mxCell id="Sk3VLhD0Ch2nDToAkQZ0-9" style="edgeStyle=orthogonalEdgeStyle;rounded=0;orthogonalLoop=1;jettySize=auto;html=1;exitX=0.5;exitY=0;exitDx=0;exitDy=0;entryX=0.5;entryY=1;entryDx=0;entryDy=0;fontStyle=1;fontFamily=Times New Roman;fontSize=14;" edge="1" parent="1" source="Sk3VLhD0Ch2nDToAkQZ0-13" target="Sk3VLhD0Ch2nDToAkQZ0-8">
          <mxGeometry relative="1" as="geometry">
            <Array as="points">
              <mxPoint x="-98.00999999999999" y="429" />
              <mxPoint x="-98.00999999999999" y="429" />
            </Array>
          </mxGeometry>
        </mxCell>
        <mxCell id="Sk3VLhD0Ch2nDToAkQZ0-10" value="0.5x" style="edgeLabel;html=1;align=center;verticalAlign=middle;resizable=0;points=[];fontSize=14;fontFamily=Times New Roman;" vertex="1" connectable="0" parent="Sk3VLhD0Ch2nDToAkQZ0-9">
          <mxGeometry x="0.1182" relative="1" as="geometry">
            <mxPoint as="offset" />
          </mxGeometry>
        </mxCell>
        <mxCell id="Sk3VLhD0Ch2nDToAkQZ0-11" style="edgeStyle=orthogonalEdgeStyle;rounded=0;orthogonalLoop=1;jettySize=auto;html=1;exitX=1;exitY=0.5;exitDx=0;exitDy=0;fontFamily=Times New Roman;fontSize=14;" edge="1" parent="1" source="Sk3VLhD0Ch2nDToAkQZ0-13">
          <mxGeometry relative="1" as="geometry">
            <mxPoint x="77.99000000000001" y="481" as="targetPoint" />
          </mxGeometry>
        </mxCell>
        <mxCell id="Sk3VLhD0Ch2nDToAkQZ0-12" value="Conv_1x1" style="edgeLabel;html=1;align=center;verticalAlign=middle;resizable=0;points=[];fontSize=14;fontFamily=Times New Roman;" vertex="1" connectable="0" parent="Sk3VLhD0Ch2nDToAkQZ0-11">
          <mxGeometry x="-0.2561" y="-1" relative="1" as="geometry">
            <mxPoint as="offset" />
          </mxGeometry>
        </mxCell>
        <mxCell id="Sk3VLhD0Ch2nDToAkQZ0-13" value="Conv&lt;div&gt;Stride = 2&lt;/div&gt;" style="rounded=0;whiteSpace=wrap;html=1;fillColor=#ffe6cc;strokeColor=#d79b00;fontStyle=1;fontFamily=Times New Roman;fontSize=14;" vertex="1" parent="1">
          <mxGeometry x="-157.5" y="432" width="110.5" height="65" as="geometry" />
        </mxCell>
        <mxCell id="Sk3VLhD0Ch2nDToAkQZ0-65" style="edgeStyle=orthogonalEdgeStyle;rounded=0;orthogonalLoop=1;jettySize=auto;html=1;exitX=0.5;exitY=0;exitDx=0;exitDy=0;entryX=0.5;entryY=1;entryDx=0;entryDy=0;" edge="1" parent="1" source="Sk3VLhD0Ch2nDToAkQZ0-16" target="Sk3VLhD0Ch2nDToAkQZ0-13">
          <mxGeometry relative="1" as="geometry" />
        </mxCell>
        <mxCell id="Sk3VLhD0Ch2nDToAkQZ0-16" value="Conv&lt;div&gt;Stride = 1&lt;/div&gt;" style="rounded=0;whiteSpace=wrap;html=1;fillColor=#ffe6cc;strokeColor=#d79b00;fontStyle=1;fontFamily=Times New Roman;fontSize=14;" vertex="1" parent="1">
          <mxGeometry x="-169.01" y="520" width="130.01" height="78" as="geometry" />
        </mxCell>
        <mxCell id="Sk3VLhD0Ch2nDToAkQZ0-17" style="edgeStyle=orthogonalEdgeStyle;rounded=0;orthogonalLoop=1;jettySize=auto;html=1;exitX=0.5;exitY=0;exitDx=0;exitDy=0;exitPerimeter=0;entryX=0.5;entryY=1;entryDx=0;entryDy=0;fontStyle=1;fontFamily=Times New Roman;fontSize=14;" edge="1" parent="1" source="Sk3VLhD0Ch2nDToAkQZ0-18" target="Sk3VLhD0Ch2nDToAkQZ0-16">
          <mxGeometry relative="1" as="geometry" />
        </mxCell>
        <mxCell id="Sk3VLhD0Ch2nDToAkQZ0-18" value="&lt;font style=&quot;font-size: 20px;&quot;&gt;$$image_{enh}$$&lt;/font&gt;" style="strokeWidth=2;html=1;shape=mxgraph.flowchart.start_1;whiteSpace=wrap;fillColor=#dae8fc;strokeColor=#6c8ebf;fontStyle=1;fontFamily=Times New Roman;fontSize=14;" vertex="1" parent="1">
          <mxGeometry x="-152.25" y="637" width="100" height="60" as="geometry" />
        </mxCell>
        <mxCell id="Sk3VLhD0Ch2nDToAkQZ0-19" style="edgeStyle=orthogonalEdgeStyle;rounded=0;orthogonalLoop=1;jettySize=auto;html=1;exitX=0.5;exitY=1;exitDx=0;exitDy=0;entryX=0.5;entryY=0;entryDx=0;entryDy=0;fontFamily=Times New Roman;fontSize=14;" edge="1" parent="1" source="Sk3VLhD0Ch2nDToAkQZ0-23" target="Sk3VLhD0Ch2nDToAkQZ0-28">
          <mxGeometry relative="1" as="geometry" />
        </mxCell>
        <mxCell id="Sk3VLhD0Ch2nDToAkQZ0-20" value="+up2" style="edgeLabel;html=1;align=center;verticalAlign=middle;resizable=0;points=[];fontSize=14;fontFamily=Times New Roman;" vertex="1" connectable="0" parent="Sk3VLhD0Ch2nDToAkQZ0-19">
          <mxGeometry x="-0.1018" relative="1" as="geometry">
            <mxPoint y="-9" as="offset" />
          </mxGeometry>
        </mxCell>
        <mxCell id="Sk3VLhD0Ch2nDToAkQZ0-21" style="edgeStyle=orthogonalEdgeStyle;rounded=0;orthogonalLoop=1;jettySize=auto;html=1;fontFamily=Times New Roman;fontSize=14;entryX=0.5;entryY=0;entryDx=0;entryDy=0;exitX=0.531;exitY=0.207;exitDx=0;exitDy=0;exitPerimeter=0;" edge="1" parent="1" target="Sk3VLhD0Ch2nDToAkQZ0-41">
          <mxGeometry relative="1" as="geometry">
            <mxPoint x="664" y="299" as="targetPoint" />
            <mxPoint x="91.05574999999999" y="299.039" as="sourcePoint" />
            <Array as="points">
              <mxPoint x="91" y="286" />
              <mxPoint x="624" y="286" />
            </Array>
          </mxGeometry>
        </mxCell>
        <mxCell id="Sk3VLhD0Ch2nDToAkQZ0-23" value="&lt;span style=&quot;&quot;&gt;Conv&lt;/span&gt;" style="rounded=0;whiteSpace=wrap;html=1;fontFamily=Times New Roman;fontSize=14;fillColor=#d5e8d4;strokeColor=#82b366;" vertex="1" parent="1">
          <mxGeometry x="40.49000000000001" y="299" width="91" height="51" as="geometry" />
        </mxCell>
        <mxCell id="Sk3VLhD0Ch2nDToAkQZ0-24" style="edgeStyle=orthogonalEdgeStyle;rounded=0;orthogonalLoop=1;jettySize=auto;html=1;exitX=0.5;exitY=1;exitDx=0;exitDy=0;entryX=0.5;entryY=0;entryDx=0;entryDy=0;fontFamily=Times New Roman;fontSize=14;" edge="1" parent="1" source="Sk3VLhD0Ch2nDToAkQZ0-28" target="Sk3VLhD0Ch2nDToAkQZ0-31">
          <mxGeometry relative="1" as="geometry" />
        </mxCell>
        <mxCell id="Sk3VLhD0Ch2nDToAkQZ0-25" value="+up2" style="edgeLabel;html=1;align=center;verticalAlign=middle;resizable=0;points=[];fontSize=14;fontFamily=Times New Roman;" vertex="1" connectable="0" parent="Sk3VLhD0Ch2nDToAkQZ0-24">
          <mxGeometry x="-0.3517" relative="1" as="geometry">
            <mxPoint y="-11" as="offset" />
          </mxGeometry>
        </mxCell>
        <mxCell id="Sk3VLhD0Ch2nDToAkQZ0-26" style="edgeStyle=orthogonalEdgeStyle;rounded=0;orthogonalLoop=1;jettySize=auto;html=1;exitX=1;exitY=0.5;exitDx=0;exitDy=0;fontFamily=Times New Roman;fontSize=14;entryX=0.5;entryY=0;entryDx=0;entryDy=0;" edge="1" parent="1" source="Sk3VLhD0Ch2nDToAkQZ0-28" target="Sk3VLhD0Ch2nDToAkQZ0-47">
          <mxGeometry relative="1" as="geometry">
            <mxPoint x="598" y="403" as="targetPoint" />
            <Array as="points">
              <mxPoint x="442" y="423" />
              <mxPoint x="442" y="377" />
              <mxPoint x="625" y="377" />
            </Array>
          </mxGeometry>
        </mxCell>
        <mxCell id="Sk3VLhD0Ch2nDToAkQZ0-28" value="&lt;span style=&quot;&quot;&gt;Conv&lt;/span&gt;" style="rounded=0;whiteSpace=wrap;html=1;fontFamily=Times New Roman;fontSize=14;fillColor=#d5e8d4;strokeColor=#82b366;" vertex="1" parent="1">
          <mxGeometry x="38.99000000000001" y="390" width="92.5" height="65" as="geometry" />
        </mxCell>
        <mxCell id="Sk3VLhD0Ch2nDToAkQZ0-29" style="edgeStyle=orthogonalEdgeStyle;rounded=0;orthogonalLoop=1;jettySize=auto;html=1;exitX=1;exitY=0.5;exitDx=0;exitDy=0;fontFamily=Times New Roman;fontSize=14;" edge="1" parent="1" source="Sk3VLhD0Ch2nDToAkQZ0-31">
          <mxGeometry relative="1" as="geometry">
            <mxPoint x="624" y="520" as="targetPoint" />
            <Array as="points">
              <mxPoint x="169" y="559" />
              <mxPoint x="169" y="507" />
              <mxPoint x="624" y="507" />
            </Array>
          </mxGeometry>
        </mxCell>
        <mxCell id="Sk3VLhD0Ch2nDToAkQZ0-31" value="&lt;span style=&quot;&quot;&gt;Conv&lt;/span&gt;" style="rounded=0;whiteSpace=wrap;html=1;fontFamily=Times New Roman;fontSize=14;fillColor=#d5e8d4;strokeColor=#82b366;" vertex="1" parent="1">
          <mxGeometry x="33.99000000000001" y="520" width="104" height="78" as="geometry" />
        </mxCell>
        <mxCell id="Sk3VLhD0Ch2nDToAkQZ0-32" value="&lt;b&gt;Bottom-up&lt;/b&gt;" style="text;html=1;strokeColor=none;fillColor=none;align=center;verticalAlign=middle;whiteSpace=wrap;rounded=0;dashed=1;fontFamily=Times New Roman;fontSize=14;" vertex="1" parent="1">
          <mxGeometry x="-133.26999999999998" y="234" width="70.01" height="52" as="geometry" />
        </mxCell>
        <mxCell id="Sk3VLhD0Ch2nDToAkQZ0-34" value="&lt;b style=&quot;&quot;&gt;Top-down&amp;nbsp;&lt;/b&gt;" style="text;html=1;strokeColor=none;fillColor=none;align=center;verticalAlign=middle;whiteSpace=wrap;rounded=0;dashed=1;fontFamily=Times New Roman;fontSize=14;" vertex="1" parent="1">
          <mxGeometry x="50.99000000000001" y="234" width="70.01" height="52" as="geometry" />
        </mxCell>
        <mxCell id="Sk3VLhD0Ch2nDToAkQZ0-36" value="Conv_1x1" style="edgeLabel;html=1;align=center;verticalAlign=middle;resizable=0;points=[];fontSize=14;fontFamily=Times New Roman;" vertex="1" connectable="0" parent="1">
          <mxGeometry x="194.99999999999977" y="507" as="geometry" />
        </mxCell>
        <mxCell id="Sk3VLhD0Ch2nDToAkQZ0-37" value="Conv_1x1" style="edgeLabel;html=1;align=center;verticalAlign=middle;resizable=0;points=[];fontSize=14;fontFamily=Times New Roman;" vertex="1" connectable="0" parent="1">
          <mxGeometry x="194.99999999999977" y="324.5" as="geometry">
            <mxPoint x="6" y="-1" as="offset" />
          </mxGeometry>
        </mxCell>
        <mxCell id="Sk3VLhD0Ch2nDToAkQZ0-40" value="Conv_1x1" style="edgeLabel;html=1;align=center;verticalAlign=middle;resizable=0;points=[];fontSize=14;fontFamily=Times New Roman;" vertex="1" connectable="0" parent="1">
          <mxGeometry x="194.99999999999977" y="416" as="geometry" />
        </mxCell>
        <mxCell id="Sk3VLhD0Ch2nDToAkQZ0-45" value="" style="edgeStyle=orthogonalEdgeStyle;rounded=0;orthogonalLoop=1;jettySize=auto;html=1;" edge="1" parent="1" source="Sk3VLhD0Ch2nDToAkQZ0-41">
          <mxGeometry relative="1" as="geometry">
            <mxPoint x="693" y="324" as="targetPoint" />
          </mxGeometry>
        </mxCell>
        <mxCell id="Sk3VLhD0Ch2nDToAkQZ0-41" value="&lt;font style=&quot;font-size: 25px;&quot;&gt;+&lt;/font&gt;" style="ellipse;whiteSpace=wrap;html=1;aspect=fixed;" vertex="1" parent="1">
          <mxGeometry x="611" y="310" width="28" height="28" as="geometry" />
        </mxCell>
        <mxCell id="Sk3VLhD0Ch2nDToAkQZ0-46" value="Conv_1x1" style="edgeLabel;html=1;align=center;verticalAlign=middle;resizable=0;points=[];fontSize=14;fontFamily=Times New Roman;" vertex="1" connectable="0" parent="1">
          <mxGeometry x="402.9999999999998" y="310" as="geometry" />
        </mxCell>
        <mxCell id="Sk3VLhD0Ch2nDToAkQZ0-49" value="" style="edgeStyle=orthogonalEdgeStyle;rounded=0;orthogonalLoop=1;jettySize=auto;html=1;" edge="1" parent="1" source="Sk3VLhD0Ch2nDToAkQZ0-47">
          <mxGeometry relative="1" as="geometry">
            <mxPoint x="693" y="404" as="targetPoint" />
          </mxGeometry>
        </mxCell>
        <mxCell id="Sk3VLhD0Ch2nDToAkQZ0-47" value="&lt;font style=&quot;font-size: 25px;&quot;&gt;+&lt;/font&gt;" style="ellipse;whiteSpace=wrap;html=1;aspect=fixed;" vertex="1" parent="1">
          <mxGeometry x="611" y="390" width="28" height="28" as="geometry" />
        </mxCell>
        <mxCell id="Sk3VLhD0Ch2nDToAkQZ0-52" value="" style="edgeStyle=orthogonalEdgeStyle;rounded=0;orthogonalLoop=1;jettySize=auto;html=1;" edge="1" parent="1" source="Sk3VLhD0Ch2nDToAkQZ0-50">
          <mxGeometry relative="1" as="geometry">
            <mxPoint x="693" y="534" as="targetPoint" />
          </mxGeometry>
        </mxCell>
        <mxCell id="Sk3VLhD0Ch2nDToAkQZ0-50" value="&lt;font style=&quot;font-size: 25px;&quot;&gt;+&lt;/font&gt;" style="ellipse;whiteSpace=wrap;html=1;aspect=fixed;" vertex="1" parent="1">
          <mxGeometry x="611" y="520" width="28" height="28" as="geometry" />
        </mxCell>
        <mxCell id="Sk3VLhD0Ch2nDToAkQZ0-55" style="edgeStyle=orthogonalEdgeStyle;rounded=0;orthogonalLoop=1;jettySize=auto;html=1;" edge="1" parent="1" source="Sk3VLhD0Ch2nDToAkQZ0-53" target="Sk3VLhD0Ch2nDToAkQZ0-18">
          <mxGeometry relative="1" as="geometry" />
        </mxCell>
        <mxCell id="Sk3VLhD0Ch2nDToAkQZ0-53" value="&lt;font style=&quot;font-size: 25px;&quot;&gt;C&lt;/font&gt;" style="ellipse;whiteSpace=wrap;html=1;aspect=fixed;" vertex="1" parent="1">
          <mxGeometry x="72" y="653" width="28" height="28" as="geometry" />
        </mxCell>
        <mxCell id="Sk3VLhD0Ch2nDToAkQZ0-57" style="edgeStyle=orthogonalEdgeStyle;rounded=0;orthogonalLoop=1;jettySize=auto;html=1;entryX=0;entryY=0.5;entryDx=0;entryDy=0;" edge="1" parent="1" source="Sk3VLhD0Ch2nDToAkQZ0-56" target="Sk3VLhD0Ch2nDToAkQZ0-13">
          <mxGeometry relative="1" as="geometry" />
        </mxCell>
        <mxCell id="Sk3VLhD0Ch2nDToAkQZ0-56" value="&lt;font style=&quot;font-size: 20px;&quot;&gt;$$image^1_{DWT}$$&lt;/font&gt;" style="strokeWidth=2;html=1;shape=mxgraph.flowchart.start_1;whiteSpace=wrap;fillColor=#dae8fc;strokeColor=#6c8ebf;fontStyle=1;fontFamily=Times New Roman;fontSize=14;" vertex="1" parent="1">
          <mxGeometry x="-312" y="434.5" width="100" height="60" as="geometry" />
        </mxCell>
        <mxCell id="Sk3VLhD0Ch2nDToAkQZ0-59" style="edgeStyle=orthogonalEdgeStyle;rounded=0;orthogonalLoop=1;jettySize=auto;html=1;" edge="1" parent="1" source="Sk3VLhD0Ch2nDToAkQZ0-58" target="Sk3VLhD0Ch2nDToAkQZ0-8">
          <mxGeometry relative="1" as="geometry" />
        </mxCell>
        <mxCell id="Sk3VLhD0Ch2nDToAkQZ0-58" value="&lt;font style=&quot;font-size: 20px;&quot;&gt;$$image^2_{DWT}$$&lt;/font&gt;" style="strokeWidth=2;html=1;shape=mxgraph.flowchart.start_1;whiteSpace=wrap;fillColor=#dae8fc;strokeColor=#6c8ebf;fontStyle=1;fontFamily=Times New Roman;fontSize=14;" vertex="1" parent="1">
          <mxGeometry x="-312" y="340.5" width="100" height="60" as="geometry" />
        </mxCell>
        <mxCell id="Sk3VLhD0Ch2nDToAkQZ0-61" value="&lt;b&gt;&lt;font style=&quot;font-size: 25px;&quot;&gt;Feature Adapter&lt;/font&gt;&lt;/b&gt;" style="text;html=1;strokeColor=none;fillColor=none;align=center;verticalAlign=middle;whiteSpace=wrap;rounded=0;dashed=1;fontFamily=Times New Roman;fontSize=14;" vertex="1" parent="1">
          <mxGeometry x="-143" y="195" width="247" height="52" as="geometry" />
        </mxCell>
        <mxCell id="Sk3VLhD0Ch2nDToAkQZ0-63" value="&lt;b&gt;&lt;font style=&quot;font-size: 25px;&quot;&gt;Original Feature Extractor&lt;/font&gt;&lt;/b&gt;" style="text;html=1;strokeColor=none;fillColor=none;align=center;verticalAlign=middle;whiteSpace=wrap;rounded=0;dashed=1;fontFamily=Times New Roman;fontSize=14;" vertex="1" parent="1">
          <mxGeometry x="300.49" y="195" width="323.51" height="52" as="geometry" />
        </mxCell>
      </root>
    </mxGraphModel>
  </diagram>
</mxfile>
